<?xml version="1.0" standalone="no"?>
<!DOCTYPE svg PUBLIC "-//W3C//DTD SVG 20010904//EN"
 "http://www.w3.org/TR/2001/REC-SVG-20010904/DTD/svg10.dtd">
<svg version="1.0" xmlns="http://www.w3.org/2000/svg"
 width="2048.000000pt" height="2048.000000pt" viewBox="0 0 2048.000000 2048.000000"
 preserveAspectRatio="xMidYMid meet">
<metadata>
Created by potrace 1.14, written by Peter Selinger 2001-2017
</metadata>
<g transform="translate(0.000000,2048.000000) scale(0.100000,-0.100000)"
fill="#000000" stroke="none">
<path d="M6691 19414 c-1 -6 -14 -9 -32 -6 -20 3 -34 0 -40 -9 -5 -8 -9 -9 -9
-3 0 6 -22 10 -57 8 -32 -1 -58 -3 -58 -4 0 -1 -8 -3 -17 -5 -10 -2 -18 1 -18
6 0 5 -11 4 -25 -1 -18 -7 -25 -6 -25 3 0 9 -3 8 -9 -1 -4 -8 -12 -14 -16 -14
-4 0 -12 6 -16 14 -6 9 -12 10 -16 3 -7 -10 -50 -18 -80 -16 -28 2 -40 2 -93
-3 -30 -3 -95 -8 -145 -12 -135 -9 -134 -9 -141 -17 -4 -4 -13 -2 -21 4 -7 6
-13 7 -13 2 0 -5 -15 -10 -32 -11 -93 -3 -198 -15 -213 -23 -5 -3 -25 -5 -42
-4 -18 1 -33 -1 -33 -4 0 -3 -17 -7 -38 -7 -42 -2 -137 -11 -137 -14 0 -3 -37
-9 -75 -14 -19 -2 -42 -7 -51 -10 -9 -4 -20 -6 -25 -5 -5 1 -13 0 -19 -1 -5
-1 -14 -3 -20 -4 -61 -11 -94 -19 -115 -26 -14 -5 -36 -12 -50 -14 -14 -3 -45
-10 -70 -17 -25 -6 -52 -12 -60 -14 -8 -2 -15 -4 -15 -5 0 -1 -7 -3 -15 -5 -8
-2 -26 -7 -40 -10 -14 -4 -36 -9 -50 -12 -14 -3 -56 -14 -95 -25 -38 -11 -74
-21 -80 -23 -12 -3 -44 -14 -70 -26 -11 -4 -47 -17 -80 -28 -33 -10 -73 -25
-90 -32 -16 -7 -33 -13 -37 -13 -3 -1 -10 -4 -14 -8 -4 -5 -18 -8 -31 -8 -12
0 -23 -5 -23 -10 0 -6 -3 -9 -7 -8 -9 1 -31 -7 -100 -38 -28 -13 -57 -24 -62
-24 -6 0 -11 -4 -11 -10 0 -5 -6 -10 -14 -10 -24 0 -160 -89 -281 -182 -5 -5
-40 -31 -78 -59 -37 -28 -67 -56 -67 -63 0 -6 4 -5 9 3 6 9 11 10 15 3 4 -6
13 -9 21 -6 7 3 24 0 37 -7 21 -11 22 -11 10 4 -11 13 -10 15 7 10 12 -3 19
-8 17 -12 -3 -4 23 -6 57 -4 60 3 132 10 132 13 0 0 36 3 80 6 43 3 85 10 92
16 9 7 13 7 13 -1 0 -7 4 -10 9 -7 5 3 37 8 72 11 92 9 128 13 179 21 89 15
732 7 758 -10 4 -2 31 -7 60 -10 29 -3 63 -8 75 -11 46 -10 83 -17 112 -20 17
-2 43 -9 58 -14 15 -6 31 -10 35 -10 4 1 9 0 12 -1 3 -1 14 -3 25 -4 11 -2 58
-13 105 -26 47 -12 96 -24 110 -27 14 -2 27 -8 28 -14 2 -5 7 -7 12 -4 14 8
419 -125 504 -166 22 -10 43 -19 47 -19 3 0 33 -12 65 -27 33 -15 61 -27 64
-28 26 -5 322 -152 390 -194 19 -11 42 -24 50 -28 8 -4 38 -20 65 -36 28 -17
59 -35 70 -41 11 -7 46 -28 77 -49 31 -20 60 -37 63 -37 4 0 13 -6 20 -12 35
-31 45 -38 45 -31 0 4 4 3 8 -3 4 -6 30 -25 57 -44 28 -19 52 -36 55 -40 3 -3
33 -26 68 -49 34 -24 62 -48 62 -52 0 -5 5 -9 11 -9 6 0 16 -6 24 -12 7 -7 32
-29 56 -48 24 -19 53 -44 65 -55 12 -11 46 -40 75 -65 62 -53 349 -337 349
-345 0 -3 12 -18 28 -34 34 -36 67 -75 112 -130 19 -24 43 -52 53 -63 9 -10
14 -18 10 -18 -5 0 -3 -4 2 -8 6 -4 26 -27 45 -52 19 -25 37 -47 40 -50 3 -3
47 -68 98 -145 51 -77 97 -146 103 -153 5 -7 17 -28 25 -47 8 -19 19 -35 25
-35 5 0 7 -5 4 -11 -4 -5 0 -18 8 -27 25 -28 137 -249 130 -256 -3 -3 -2 -6 4
-6 9 0 42 -66 40 -80 0 -3 12 -27 26 -53 15 -27 29 -56 31 -65 3 -15 12 -38
45 -117 12 -28 42 -116 42 -125 1 -3 5 -11 11 -18 6 -7 8 -15 5 -19 -4 -3 -3
-11 2 -17 9 -10 41 -113 41 -129 0 -4 6 -22 13 -40 8 -17 12 -38 10 -44 -3 -7
1 -13 8 -13 7 0 10 -3 7 -6 -4 -3 -2 -20 3 -37 6 -18 12 -43 14 -57 2 -14 7
-36 10 -50 3 -14 8 -36 11 -50 3 -14 9 -40 14 -59 5 -19 7 -38 4 -43 -3 -5 -1
-14 4 -21 5 -7 12 -34 16 -62 3 -27 9 -72 12 -100 3 -27 7 -56 7 -62 0 -7 5
-13 10 -13 5 0 4 -6 -2 -13 -6 -8 -8 -16 -5 -20 10 -10 26 -267 26 -437 1
-105 -11 -371 -17 -380 -2 -3 -6 -34 -10 -70 -9 -88 -13 -120 -20 -155 -3 -16
-7 -41 -10 -55 -2 -14 -6 -36 -8 -50 -3 -14 -8 -43 -11 -65 -3 -22 -13 -67
-21 -100 -9 -33 -16 -67 -17 -75 0 -8 -5 -21 -11 -27 -5 -7 -7 -13 -3 -13 3 0
1 -12 -5 -27 -11 -29 -21 -69 -22 -90 0 -7 -4 -13 -9 -13 -5 0 -7 -4 -4 -9 4
-5 1 -22 -6 -38 -6 -15 -12 -31 -13 -35 -2 -5 -3 -9 -5 -10 -1 -2 -3 -10 -5
-18 -11 -44 -16 -61 -41 -130 -14 -41 -29 -77 -33 -80 -3 -3 -7 -12 -9 -20 -1
-8 -12 -36 -22 -62 -31 -73 -43 -103 -45 -108 -1 -3 -13 -31 -28 -64 -15 -32
-27 -60 -27 -61 0 -1 -12 -24 -27 -51 -15 -27 -29 -56 -30 -64 -1 -8 -7 -16
-12 -18 -6 -2 -11 -10 -11 -18 0 -8 -5 -14 -10 -14 -6 0 -9 -3 -8 -7 2 -10
-16 -49 -44 -95 -13 -21 -43 -70 -67 -110 -72 -119 -173 -268 -182 -268 -5 0
-8 -4 -7 -8 5 -14 -223 -299 -314 -394 -21 -21 -38 -43 -38 -49 0 -6 -4 -7
-10 -4 -5 3 -10 3 -10 -2 0 -10 -90 -104 -148 -155 -23 -21 -39 -38 -36 -38 4
0 -6 -10 -22 -22 -15 -13 -40 -34 -54 -48 -14 -14 -50 -45 -79 -70 -29 -25
-67 -57 -84 -72 -18 -15 -38 -28 -46 -28 -8 0 -12 -3 -8 -6 5 -5 -44 -46 -154
-127 -119 -88 -336 -230 -413 -271 -27 -14 -54 -30 -60 -35 -6 -5 -38 -23 -71
-40 -33 -18 -73 -40 -90 -50 -16 -10 -33 -16 -37 -14 -5 2 -8 0 -8 -6 0 -5
-10 -13 -22 -17 -13 -4 -65 -27 -118 -52 -167 -78 -215 -100 -242 -107 -5 -2
-10 -4 -13 -5 -3 -1 -8 -3 -12 -5 -5 -1 -25 -9 -45 -18 -21 -10 -40 -17 -44
-17 -3 0 -20 -6 -37 -14 -34 -15 -213 -77 -231 -80 -6 -1 -33 -9 -61 -18 -138
-44 -196 -60 -219 -62 -14 0 -26 -5 -26 -10 0 -5 -3 -7 -6 -4 -3 4 -20 2 -37
-3 -18 -6 -40 -12 -50 -14 -10 -2 -26 -6 -35 -9 -9 -3 -34 -8 -56 -12 -57 -9
-75 -12 -84 -17 -4 -3 -29 -8 -57 -11 -27 -4 -59 -9 -70 -11 -47 -11 -84 -17
-140 -23 -79 -9 -739 -9 -880 1 -60 4 -153 9 -205 12 -52 3 -120 8 -150 11
-100 9 -250 14 -264 8 -20 -8 -28 -32 -17 -52 11 -21 124 -75 381 -183 159
-66 568 -261 630 -299 8 -5 85 -50 170 -101 85 -50 191 -115 235 -144 44 -29
130 -83 190 -120 130 -79 273 -178 428 -294 141 -105 231 -174 237 -182 5 -6
29 -27 154 -132 155 -131 496 -468 619 -612 183 -214 467 -581 467 -602 0 -4
8 -16 19 -27 15 -17 337 -499 388 -581 70 -113 130 -213 136 -225 4 -8 17 -31
28 -50 21 -35 80 -139 154 -275 45 -82 272 -536 375 -750 205 -426 243 -501
258 -517 8 -10 12 -18 8 -18 -4 0 4 -15 17 -32 13 -18 41 -73 62 -123 63 -146
115 -257 340 -710 208 -422 259 -525 261 -535 0 -3 18 -41 38 -85 21 -44 51
-107 66 -140 83 -179 139 -295 314 -645 106 -212 207 -412 226 -445 18 -33 48
-89 68 -125 33 -61 247 -421 284 -478 10 -15 23 -37 29 -49 7 -13 16 -23 21
-23 4 0 8 -6 8 -13 0 -8 9 -22 20 -32 11 -10 20 -24 20 -31 0 -7 3 -14 8 -16
4 -1 28 -33 54 -69 45 -64 190 -253 225 -294 10 -11 40 -47 67 -80 28 -33 68
-80 90 -105 51 -56 392 -396 432 -430 16 -14 60 -52 97 -84 l67 -59 558 3
c790 3 810 3 1082 0 135 -1 277 -2 315 -2 39 1 683 0 1433 -2 749 -2 1362 0
1362 4 0 4 -10 14 -22 23 -13 8 -34 25 -48 37 -14 12 -42 36 -63 53 -21 18
-49 41 -61 52 -12 11 -42 37 -67 58 -136 118 -316 293 -429 417 -18 19 -48 53
-69 75 -76 84 -227 271 -336 419 -108 145 -363 551 -450 716 -16 30 -41 78
-56 105 -59 108 -390 768 -452 900 -36 77 -90 193 -121 258 -31 65 -56 120
-56 122 0 7 -189 395 -400 820 -120 242 -223 457 -230 478 -7 21 -50 114 -96
205 -46 92 -84 171 -84 175 0 5 -11 23 -24 40 -13 18 -38 64 -56 102 -56 118
-416 845 -462 930 -24 44 -47 83 -53 87 -5 4 -6 8 -2 8 5 0 0 12 -11 28 -11
15 -34 54 -51 87 -18 33 -36 67 -41 75 -5 8 -35 58 -66 110 -78 131 -267 424
-276 428 -5 2 -8 8 -8 13 0 6 -18 34 -40 64 -22 30 -40 58 -40 64 0 5 -3 11
-7 13 -5 2 -41 53 -82 113 -66 97 -325 452 -340 465 -3 3 -40 46 -81 95 -41
50 -79 95 -85 101 -5 6 -35 40 -65 75 -30 35 -136 145 -235 244 -162 163 -233
229 -375 351 -25 22 -47 41 -50 44 -16 18 -232 189 -325 258 -60 45 -119 89
-130 98 -11 8 -32 23 -47 32 -16 9 -28 20 -28 24 0 4 -5 8 -10 8 -9 0 -65 35
-80 50 -8 9 -109 70 -235 143 -157 91 -169 98 -240 137 -33 18 -68 40 -77 48
-10 8 -18 12 -18 7 0 -4 -6 -3 -12 2 -13 11 -164 91 -303 162 -44 22 -78 41
-75 42 3 0 14 3 25 6 11 2 35 5 53 6 17 1 32 5 32 9 0 4 3 7 8 6 10 -3 135 24
147 32 6 3 20 5 33 4 12 0 22 2 22 6 0 4 13 7 29 8 17 0 38 5 48 10 10 5 24 7
31 5 6 -3 12 -1 12 5 0 5 6 9 13 9 6 0 26 4 42 7 17 4 35 8 42 10 7 1 15 5 19
8 3 4 12 4 20 1 8 -3 14 0 14 7 0 6 4 9 9 6 5 -4 22 -1 38 6 15 6 34 10 41 9
6 -1 12 4 12 11 0 9 3 9 10 -2 5 -8 10 -10 10 -4 0 10 6 12 50 16 11 1 20 5
20 9 0 4 7 10 16 13 10 4 13 2 8 -7 -6 -9 -5 -9 8 0 8 7 18 10 21 6 4 -3 7 -2
7 4 0 5 7 10 15 11 8 1 22 3 30 4 8 1 15 5 15 9 0 4 9 6 20 4 11 -2 20 0 20 6
0 5 9 9 20 9 11 0 20 6 20 13 0 9 2 9 9 -1 7 -11 11 -11 23 2 9 8 18 12 22 9
3 -3 12 0 20 6 8 7 20 10 26 6 5 -3 10 -1 10 5 0 7 6 10 13 7 7 -3 21 1 31 9
11 7 23 11 29 7 5 -3 13 0 17 6 4 7 17 13 28 14 12 1 22 4 22 7 0 3 10 6 22 7
11 1 25 8 29 15 4 7 11 10 14 6 4 -3 25 2 48 12 23 10 45 16 49 14 4 -3 8 0 8
5 0 6 8 11 18 11 10 0 28 7 40 16 12 8 27 12 32 9 6 -3 13 1 16 9 3 9 11 13
16 10 6 -4 14 0 19 7 7 11 9 11 9 1 0 -10 4 -9 16 2 8 9 20 14 25 10 5 -3 12
2 15 11 5 13 9 13 22 3 13 -11 14 -11 7 1 -6 11 -4 13 9 8 9 -4 15 -3 12 2 -5
8 40 26 57 23 4 -1 7 3 7 9 0 6 7 8 16 5 10 -4 13 -2 8 6 -5 8 -2 9 9 5 10 -4
17 -2 17 4 0 6 7 8 16 5 8 -3 13 -2 10 2 -3 4 4 14 16 21 11 7 17 8 14 2 -4
-7 -1 -8 8 -5 9 3 16 10 16 15 0 5 9 9 20 9 11 0 20 4 20 10 0 5 7 7 15 4 8
-4 15 -1 15 6 0 7 8 10 20 7 11 -3 18 0 17 7 -1 6 6 10 16 10 9 -1 17 1 17 6
0 11 43 27 63 24 14 -2 15 1 8 10 -8 9 -7 13 2 13 26 1 42 9 55 26 7 9 18 14
24 11 5 -4 23 3 39 15 15 11 35 21 44 21 8 0 15 5 15 11 0 5 5 7 10 4 6 -3 10
-2 10 3 0 6 11 13 25 16 14 4 23 11 20 16 -3 6 1 7 9 4 9 -3 16 -1 16 5 0 6 7
8 15 5 8 -4 15 -1 15 5 0 6 7 11 15 11 8 0 15 5 15 11 0 5 4 8 9 5 5 -3 12 1
15 10 4 10 13 13 27 9 13 -5 19 -3 15 3 -5 9 16 24 37 26 4 1 11 7 16 14 5 8
11 13 15 13 20 -3 26 0 20 11 -5 8 -2 9 9 5 10 -3 17 -2 17 4 0 6 5 7 10 4 6
-3 10 2 11 12 0 10 3 13 6 6 3 -8 12 -4 27 12 16 17 26 21 34 15 7 -6 10 -7 7
-4 -5 8 20 34 33 34 5 0 15 7 22 15 7 8 15 13 19 10 4 -2 13 5 21 15 8 10 17
17 22 14 4 -3 15 2 24 10 9 9 21 13 27 9 7 -3 9 -3 5 2 -8 8 52 55 70 55 6 0
13 7 16 16 3 8 10 13 15 9 6 -3 15 3 21 14 6 12 18 18 30 16 11 -2 23 1 26 7
4 7 2 8 -4 4 -7 -4 -12 -2 -12 3 0 6 7 11 15 11 8 0 15 5 15 10 0 6 6 9 13 8
6 -2 11 3 9 10 -1 6 1 11 5 11 5 -1 17 -1 28 0 17 1 18 3 5 11 -13 8 -12 10 5
11 11 1 23 1 28 0 4 0 6 5 5 11 -2 7 2 12 9 11 7 -2 17 7 23 18 7 12 18 18 26
15 8 -3 12 -1 9 4 -3 5 8 18 24 28 17 10 28 22 23 27 -4 4 0 6 8 3 8 -2 24 6
36 19 11 12 24 20 27 16 4 -3 7 -1 7 5 0 7 7 12 15 12 8 0 15 6 15 13 0 16 38
40 51 32 5 -4 8 -1 7 7 -2 7 3 12 10 10 6 -1 11 1 11 5 -4 27 1 35 16 23 13
-11 14 -10 10 1 -3 9 6 21 25 32 16 10 30 26 30 35 0 15 2 15 10 2 9 -13 14
-7 11 13 0 4 4 7 10 7 5 0 7 4 4 10 -3 6 1 7 9 4 10 -4 16 -1 16 10 0 10 6 13
15 10 9 -4 15 0 15 10 0 9 7 16 16 16 8 0 13 4 10 9 -3 4 4 17 17 27 12 10 16
12 10 4 -7 -8 -13 -19 -13 -24 0 -6 10 4 21 22 12 17 26 32 31 32 6 0 8 6 5
13 -3 8 1 14 9 14 7 0 10 -5 7 -10 -3 -6 -1 -7 5 -3 7 4 12 13 12 21 0 17 59
67 71 60 5 -4 6 1 3 9 -6 16 28 40 40 28 4 -3 4 2 0 13 -6 15 -4 17 10 12 10
-4 15 -3 11 3 -8 13 22 43 34 35 6 -3 8 4 6 16 -2 12 -2 19 2 15 10 -10 33 15
33 36 0 10 5 16 10 13 6 -4 7 -11 4 -17 -4 -7 -2 -8 5 -4 6 4 9 11 6 16 -7 11
20 32 29 22 4 -4 7 -2 6 3 -5 22 1 35 16 35 8 0 12 5 9 10 -3 6 1 10 11 10 12
0 14 3 6 13 -8 10 -6 13 10 14 12 1 26 7 32 14 8 9 8 10 -1 5 -18 -10 -16 0 4
24 10 11 23 20 31 20 7 0 10 5 7 10 -3 6 -1 10 4 10 6 0 11 7 11 16 0 9 9 18
20 21 11 3 18 9 15 13 -3 5 -1 11 5 15 6 4 8 11 4 16 -3 5 -2 9 3 8 20 -3 34
2 28 11 -3 6 1 13 10 16 13 6 14 8 3 15 -9 6 -7 9 9 9 17 0 21 4 16 17 -5 12
-3 14 7 8 10 -6 12 -4 7 8 -4 11 -2 14 7 11 8 -3 17 0 22 7 5 8 3 10 -7 4 -11
-7 -12 -6 -2 7 7 8 10 18 6 22 -4 4 0 4 10 0 11 -4 17 -1 17 8 0 7 9 19 19 25
12 8 18 20 16 33 -2 11 0 18 6 15 5 -4 9 -1 9 5 0 6 4 9 9 5 6 -3 8 4 6 15 -2
13 4 25 16 33 10 6 19 17 19 24 0 7 4 13 9 13 5 0 11 9 14 21 4 13 10 18 18
13 8 -5 10 -3 4 6 -6 10 -3 12 11 7 18 -7 18 -6 2 7 -19 14 -24 27 -10 25 20
-3 32 2 32 16 0 8 4 15 10 15 5 0 14 10 20 23 10 20 10 20 -3 5 -8 -10 -17
-18 -21 -18 -4 0 4 14 18 31 14 17 23 36 19 42 -4 8 -1 7 9 -1 13 -11 16 -10
14 5 0 10 4 17 10 16 10 -2 12 4 16 46 1 11 5 19 8 18 3 -1 7 3 9 8 2 6 11 16
20 23 9 8 10 10 3 7 -13 -7 -12 -3 15 44 2 2 10 -2 20 -10 14 -12 13 -9 -3 16
-18 30 -18 30 1 15 11 -9 16 -10 11 -2 -4 7 0 19 9 28 9 9 14 22 11 29 -3 8 2
16 10 19 10 4 13 13 9 26 -5 15 -3 18 9 14 11 -4 13 0 9 15 -4 16 -1 21 13 21
16 0 17 2 4 10 -14 9 -13 11 10 14 12 1 14 15 4 24 -4 4 -4 1 1 -7 5 -10 4
-12 -4 -7 -17 11 -2 29 18 21 12 -5 13 -4 4 6 -10 10 -9 15 5 26 9 8 12 12 5
9 -18 -9 -9 25 10 36 9 5 17 18 17 29 0 14 4 18 13 13 7 -5 6 0 -3 11 -9 11
-10 16 -2 11 11 -6 17 11 13 37 0 4 4 7 10 7 6 0 8 7 5 16 -4 11 -2 15 7 11
10 -4 13 2 9 21 -5 25 -4 26 14 12 18 -14 18 -14 4 4 -11 15 -12 20 -2 23 6 3
12 9 12 14 0 6 -5 7 -12 3 -7 -4 -2 6 10 23 16 23 18 33 9 42 -9 10 -8 11 8 5
11 -4 17 -3 12 1 -4 5 1 18 10 29 12 14 13 17 3 9 -13 -10 -16 -8 -16 6 0 12
5 17 15 13 10 -4 13 -1 8 11 -3 9 0 23 8 31 8 7 11 16 8 20 -3 3 0 12 7 21 10
12 10 15 -1 15 -9 0 -10 3 -3 8 12 8 28 43 25 56 -1 4 6 15 16 23 10 8 13 12
6 9 -6 -4 -14 -2 -17 3 -3 5 1 12 10 15 9 3 14 13 10 21 -3 8 3 19 12 25 16
11 16 11 0 6 -22 -7 -24 10 -2 18 8 3 13 10 9 15 -3 5 -1 12 5 16 6 4 3 16 -7
33 -17 26 -17 26 1 12 17 -13 18 -12 12 23 -4 25 -2 39 8 44 19 11 31 53 15
53 -7 0 -3 10 10 24 14 15 19 26 12 31 -6 3 -11 13 -11 21 0 8 5 12 10 9 6 -3
10 -2 10 4 0 5 -6 12 -12 15 -10 5 -10 7 0 12 9 4 10 9 2 19 -8 9 -6 17 5 29
11 11 13 16 4 16 -7 0 -5 7 7 16 10 8 13 13 7 9 -14 -7 -18 7 -6 19 10 10 14
48 5 42 -5 -3 -9 1 -9 9 0 8 5 11 10 8 6 -3 8 9 5 31 -2 20 -1 36 3 36 4 0 5
10 1 22 -4 16 -2 19 8 13 10 -6 11 -4 4 6 -13 22 -14 43 -1 51 9 6 8 8 -2 8
-9 0 -8 5 6 18 10 9 14 14 9 10 -15 -12 -23 -10 -23 7 0 8 4 12 9 9 4 -3 8 2
8 10 0 9 -6 16 -12 16 -7 1 -2 7 12 15 14 8 19 14 12 15 -7 0 -11 4 -7 9 3 5
1 12 -5 16 -7 4 -7 12 0 26 7 13 7 19 0 19 -5 0 -10 -5 -10 -12 0 -6 -3 -8 -7
-4 -5 4 1 14 11 22 11 8 15 14 10 14 -5 0 -10 9 -10 20 0 11 7 20 16 20 13 0
13 2 0 9 -8 6 -18 7 -24 4 -5 -3 -6 -1 -2 6 4 6 12 9 17 6 16 -11 10 7 -8 22
-17 14 -17 14 -1 9 21 -6 34 9 17 20 -8 5 -9 3 -4 -6 6 -9 4 -11 -4 -5 -9 5
-10 10 -2 18 7 7 5 14 -7 24 -16 12 -16 13 2 7 16 -6 17 -4 8 13 -6 11 -7 25
-2 33 5 8 4 22 -1 32 -5 10 -7 18 -3 18 3 0 2 6 -3 13 -8 10 -10 51 -3 60 7 9
7 36 -1 31 -5 -3 -9 0 -9 5 0 6 5 11 11 11 5 0 7 5 4 10 -4 6 -9 8 -13 6 -4
-2 -7 11 -7 30 -1 24 3 33 12 30 7 -3 13 -1 13 4 0 6 -10 10 -22 11 -13 0 -18
3 -11 5 7 3 9 12 6 21 -5 12 -2 14 8 9 9 -5 8 -3 -2 6 -9 7 -14 18 -12 25 2 7
-1 21 -7 32 -12 23 -2 28 20 9 8 -7 4 -1 -9 15 -18 19 -20 27 -10 28 8 0 6 4
-6 9 -11 5 -14 9 -7 9 6 1 12 8 12 17 0 8 -4 12 -10 9 -5 -3 -10 -1 -10 4 0 6
4 11 8 11 5 0 9 7 9 15 0 11 -3 12 -14 3 -11 -9 -13 -8 -11 3 2 8 10 17 18 21
12 5 11 7 -3 7 -10 1 -16 5 -12 10 3 5 1 12 -5 16 -7 4 -7 13 0 26 9 15 7 21
-5 26 -13 4 -14 8 -4 14 10 6 9 13 -6 30 -11 12 -14 19 -7 15 6 -4 12 -3 12 3
0 5 -8 12 -17 14 -17 4 -17 5 0 6 10 0 15 6 12 11 -4 6 -11 8 -16 5 -5 -3 -6
1 -3 9 3 9 1 16 -5 16 -9 0 -9 5 -1 20 7 14 7 20 0 20 -5 0 -10 9 -10 21 0 13
4 18 13 13 8 -5 8 -2 -2 9 -14 18 -26 23 -16 8 3 -5 1 -12 -3 -15 -5 -3 -8 10
-7 29 1 22 -4 36 -13 40 -12 4 -13 8 -4 17 14 14 16 32 3 24 -5 -3 -12 1 -15
10 -9 24 -7 31 4 14 5 -8 10 -10 10 -4 0 6 -8 21 -19 32 -12 14 -16 31 -13 48
3 18 1 25 -6 20 -7 -4 -10 4 -10 21 1 46 -1 53 -17 53 -8 0 -15 5 -15 11 0 5
5 7 10 4 19 -12 10 4 -17 31 -16 15 -20 22 -11 15 14 -10 16 -9 11 8 -3 12 -9
19 -13 16 -4 -3 -10 4 -13 16 -4 16 -3 18 9 8 9 -7 14 -8 14 -1 0 6 -9 14 -20
17 -11 3 -20 11 -20 16 0 6 4 7 10 4 5 -3 7 0 4 9 -3 9 -12 12 -22 8 -15 -5
-15 -3 -4 11 12 14 11 19 -7 38 -16 17 -18 25 -9 31 12 7 11 9 -11 12 -5 0
-13 5 -18 10 -5 5 -3 6 5 2 6 -4 12 -2 12 3 0 6 -4 11 -9 11 -5 0 -14 14 -20
30 -5 17 -16 30 -23 30 -9 0 -9 3 2 10 13 8 13 11 1 22 -11 11 -13 11 -6 -1 5
-10 4 -12 -4 -7 -6 4 -8 12 -5 18 4 6 2 13 -5 17 -6 4 -12 19 -13 34 -1 15 -7
27 -12 27 -5 0 -7 3 -3 6 3 4 -5 21 -18 39 -14 17 -22 35 -18 39 4 4 -1 4 -12
0 -18 -7 -19 -6 -6 10 13 15 12 18 -6 22 -12 3 -20 13 -19 22 3 18 -15 42 -26
36 -3 -2 -4 4 -1 14 2 11 -3 25 -14 33 -17 13 -17 13 -3 -6 14 -19 14 -19 -3
-6 -13 11 -15 17 -5 28 9 11 7 15 -11 20 -17 4 -19 8 -9 14 10 7 9 9 -3 9 -9
0 -20 7 -23 16 -4 10 -2 13 7 8 6 -3 -1 6 -18 20 -27 24 -28 26 -5 15 23 -11
24 -11 11 4 -7 10 -19 17 -25 17 -15 0 -38 38 -31 50 4 6 0 10 -8 10 -24 0
-39 24 -24 40 9 10 9 11 0 6 -8 -4 -13 -1 -13 9 0 8 -7 18 -15 21 -8 4 -12 10
-9 15 3 5 -2 9 -11 9 -9 0 -13 5 -10 10 3 6 2 10 -2 10 -5 0 -13 10 -18 23 -6
12 -16 21 -23 19 -10 -2 -10 2 -1 20 11 21 11 22 -5 9 -14 -12 -16 -12 -10 4
6 14 4 16 -6 10 -10 -6 -12 -3 -7 14 4 18 3 20 -9 10 -11 -9 -14 -8 -14 9 0
12 -5 24 -12 28 -7 5 -8 3 -3 -7 8 -12 6 -12 -8 0 -13 10 -15 17 -6 27 9 11 7
14 -11 14 -15 0 -20 4 -17 15 4 8 1 17 -5 21 -7 5 -8 2 -3 -6 5 -9 4 -11 -3
-6 -7 4 -12 12 -12 19 0 6 -19 29 -42 50 -24 22 -42 41 -40 43 7 12 0 24 -14
24 -10 0 -14 5 -10 16 3 8 2 13 -3 10 -5 -3 -12 1 -15 10 -4 9 -13 14 -21 10
-18 -7 -19 5 -2 23 10 11 10 13 0 7 -7 -4 -13 -2 -13 3 0 6 -6 10 -12 8 -7 -1
-12 3 -11 10 2 6 -7 15 -18 18 -13 4 -18 12 -15 21 3 9 1 12 -4 9 -6 -3 -10
-1 -10 4 0 6 -6 11 -14 11 -7 0 -16 10 -19 21 -4 14 -11 20 -21 16 -10 -4 -13
-1 -9 9 3 7 -1 14 -8 14 -7 0 -9 3 -6 7 4 3 -3 11 -16 18 -12 6 -21 17 -20 23
2 7 -7 12 -18 12 -17 0 -19 3 -10 14 10 12 8 14 -12 12 -20 -2 -23 1 -19 17 4
16 2 19 -12 14 -12 -5 -19 0 -25 16 -5 12 -6 26 -3 31 3 5 0 6 -6 2 -13 -8
-52 14 -52 30 0 6 -10 19 -22 30 l-23 19 20 -24 20 -25 -26 20 c-15 11 -24 25
-21 33 4 10 1 13 -11 8 -11 -4 -17 -1 -17 8 0 7 -9 17 -20 20 -11 3 -20 13
-20 21 0 8 -6 14 -14 14 -7 0 -20 9 -27 20 -8 12 -24 22 -36 23 -17 1 -19 4
-11 14 10 12 0 18 -24 14 -5 0 -8 6 -8 15 0 8 -5 12 -10 9 -6 -3 -13 1 -16 9
-3 9 -11 16 -18 16 -6 0 -17 9 -24 20 -7 11 -22 20 -35 21 -12 0 -16 3 -9 6
15 6 -35 53 -56 53 -7 0 -10 5 -6 12 4 7 3 8 -5 4 -14 -9 -43 12 -35 25 3 5
-1 6 -9 3 -9 -3 -21 4 -29 15 -8 12 -18 18 -21 14 -4 -3 -7 2 -8 13 0 10 -3
14 -6 7 -5 -13 -39 16 -62 52 -11 18 -11 18 -6 -5 l7 -25 -17 23 c-9 12 -21
20 -26 17 -5 -4 -9 1 -9 9 0 9 -7 16 -16 16 -9 0 -12 5 -8 12 5 7 2 9 -9 5
-16 -6 -42 15 -31 26 3 3 -3 3 -15 0 -15 -4 -21 -1 -21 11 0 10 -4 14 -10 11
-5 -3 -10 -1 -10 6 0 7 -3 10 -6 6 -4 -3 -13 1 -21 9 -8 8 -19 12 -24 8 -5 -3
-8 0 -7 8 2 7 -5 13 -14 13 -9 0 -20 4 -25 9 -5 5 -2 6 7 2 8 -4 7 -1 -3 8
-11 8 -26 12 -35 9 -9 -4 -13 -2 -9 4 4 6 -9 18 -28 27 -19 9 -35 21 -35 27 0
6 -4 7 -10 4 -5 -3 -10 -1 -10 5 0 6 -4 8 -10 5 -5 -3 -10 -1 -10 5 0 6 -4 8
-10 5 -5 -3 -10 -1 -10 4 0 6 -7 11 -16 11 -9 0 -12 5 -8 12 4 6 3 8 -4 4 -6
-3 -17 0 -25 8 -8 8 -17 12 -21 9 -3 -4 -6 0 -6 7 0 7 -3 10 -6 7 -4 -4 -15 3
-25 14 -9 11 -19 19 -21 18 -2 -2 -14 1 -28 5 -14 5 -28 8 -32 7 -5 -1 -7 5
-5 12 1 6 -4 11 -10 10 -7 -2 -13 2 -13 8 0 6 -6 9 -13 6 -8 -3 -20 3 -27 14
-11 15 -17 16 -29 6 -12 -9 -13 -9 -7 1 4 7 1 12 -8 12 -9 0 -16 7 -16 16 0 8
-4 13 -9 10 -12 -8 -102 39 -93 49 4 5 2 5 -4 2 -7 -4 -17 0 -24 8 -7 8 -17
12 -22 9 -5 -3 -19 2 -30 13 -15 12 -19 13 -14 3 4 -8 -2 -4 -14 10 -12 14
-19 19 -15 13 3 -7 1 -13 -4 -13 -6 0 -11 5 -11 11 0 5 -4 7 -10 4 -5 -3 -10
-1 -10 5 0 6 -4 8 -10 5 -5 -3 -10 -1 -10 4 0 6 -9 11 -20 11 -11 0 -20 5 -20
10 0 6 -9 10 -19 10 -11 0 -21 5 -23 11 -2 5 -11 11 -20 13 -10 1 -21 5 -24 9
-4 4 -16 7 -26 7 -10 0 -18 5 -18 11 0 5 -4 8 -9 5 -5 -4 -11 -1 -13 6 -2 6
-12 12 -21 14 -10 1 -15 -2 -11 -9 3 -7 -1 -4 -9 6 -9 10 -19 19 -24 19 -4 1
-15 3 -23 5 -8 2 -19 4 -23 3 -4 0 -16 7 -25 18 -9 10 -13 12 -8 5 6 -10 4
-12 -8 -7 -9 3 -16 10 -16 15 0 5 -9 9 -19 9 -11 0 -22 4 -26 10 -3 5 -13 6
-22 3 -12 -5 -14 -3 -8 7 6 9 4 11 -5 5 -7 -4 -15 -3 -19 3 -4 6 -22 14 -41
17 -19 3 -37 11 -41 17 -4 6 -12 7 -19 3 -8 -5 -11 -4 -7 2 4 6 0 14 -9 17 -9
3 -12 2 -9 -4 4 -6 -10 -1 -30 10 -20 11 -34 16 -30 10 3 -6 0 -7 -9 -4 -9 3
-16 11 -16 16 0 6 -7 8 -15 4 -8 -3 -15 0 -15 6 0 6 -3 8 -7 5 -3 -4 -12 -2
-20 4 -7 6 -13 8 -13 4 0 -4 -7 -2 -15 5 -8 6 -19 9 -25 5 -5 -3 -10 -1 -10 4
0 6 -3 10 -7 9 -5 -1 -19 4 -32 11 -19 11 -22 11 -16 -1 6 -10 5 -11 -6 0 -7
6 -21 12 -31 12 -10 0 -18 5 -18 11 0 6 -7 9 -15 5 -8 -3 -20 1 -27 8 -7 7
-24 12 -36 11 -13 -1 -29 4 -36 10 -6 7 -19 11 -29 9 -9 -1 -17 1 -17 5 0 4
-7 8 -15 9 -8 1 -22 3 -30 4 -8 1 -15 5 -15 10 0 5 -4 6 -10 3 -5 -3 -10 -2
-10 2 0 5 -12 10 -27 11 -16 1 -30 7 -31 13 -3 6 -9 6 -18 -2 -10 -8 -14 -8
-14 0 0 6 -11 11 -25 11 -14 0 -25 4 -25 8 0 7 -24 12 -67 15 -7 0 -13 5 -13
11 0 6 -5 4 -10 -4 -6 -10 -10 -11 -10 -2 0 6 -10 12 -23 12 -13 0 -28 5 -35
12 -9 9 -12 9 -12 -2 -1 -12 -3 -11 -10 2 -6 10 -18 14 -30 11 -11 -3 -20 0
-20 6 0 5 -7 8 -15 5 -8 -4 -21 -2 -28 4 -6 5 -20 8 -29 7 -10 -2 -18 0 -18 4
0 4 -11 8 -25 9 -14 1 -35 3 -47 4 -13 1 -26 6 -29 10 -3 5 -22 9 -42 10 -20
1 -37 5 -37 10 0 5 -10 6 -21 3 -12 -4 -19 -3 -16 2 3 5 -6 9 -21 8 -15 0 -37
5 -49 13 -14 9 -23 10 -28 3 -4 -8 -12 -8 -26 0 -11 6 -27 8 -35 5 -8 -3 -14
-2 -14 3 0 5 -10 9 -22 10 -72 5 -83 7 -88 12 -3 4 -21 8 -40 10 -19 2 -38 8
-42 14 -5 6 -8 6 -8 -2 0 -9 -10 -9 -40 2 -30 11 -40 11 -40 2 0 -7 -4 -6 -10
3 -5 8 -10 11 -10 5 0 -5 -5 -3 -10 5 -7 11 -10 11 -10 2 0 -8 -5 -10 -12 -6
-7 4 -24 9 -38 10 -48 5 -81 11 -87 17 -3 4 -13 2 -23 -3 -10 -5 -20 -6 -24
-3 -9 9 -33 14 -83 16 -24 1 -43 4 -43 7 0 3 -26 6 -57 8 -32 1 -60 8 -65 15
-6 9 -8 9 -8 0 0 -12 -30 -10 -52 3 -7 5 -8 3 -3 -6 6 -10 4 -11 -6 -4 -8 5
-27 9 -44 9 -16 0 -34 3 -40 5 -5 3 -34 5 -62 5 -29 0 -53 4 -53 8 0 4 -8 3
-18 -2 -10 -5 -24 -6 -32 -1 -7 5 -39 9 -69 10 -31 1 -86 2 -123 3 -38 1 -68
6 -68 10 0 5 -6 4 -13 -2 -8 -6 -17 -8 -21 -4 -11 11 -76 10 -76 -2 0 -7 -3
-7 -8 0 -11 16 -115 18 -106 2 6 -8 3 -8 -9 1 -9 8 -20 11 -26 8 -5 -3 -12 0
-14 6 -4 10 -6 10 -6 0 -1 -7 -6 -10 -11 -7 -13 8 -677 8 -689 0 -5 -3 -12 1
-14 7 -3 7 -6 8 -6 2z m5560 -1571 c13 -16 12 -17 -3 -4 -17 13 -22 21 -14 21
2 0 10 -8 17 -17z m1374 -1592 c3 -5 2 -12 -3 -15 -5 -3 -9 1 -9 9 0 17 3 19
12 6z m220 -500 c3 -5 2 -12 -3 -15 -5 -3 -9 1 -9 9 0 17 3 19 12 6z m200
-1060 c3 -5 2 -12 -3 -15 -5 -3 -9 1 -9 9 0 17 3 19 12 6z m-55 -826 c-7 -9
-15 -13 -19 -10 -3 3 1 10 9 15 21 14 24 12 10 -5z m-735 -1634 c3 -5 2 -12
-3 -15 -5 -3 -9 1 -9 9 0 17 3 19 12 6z"/>
<path d="M13400 16626 c0 -2 8 -10 18 -17 15 -13 16 -12 3 4 -13 16 -21 21
-21 13z"/>
<path d="M14046 14753 c-6 -14 -5 -15 5 -6 7 7 10 15 7 18 -3 3 -9 -2 -12 -12z"/>
<path d="M14005 13980 c-3 -5 -1 -10 4 -10 6 0 11 5 11 10 0 6 -2 10 -4 10 -3
0 -8 -4 -11 -10z"/>
<path d="M14686 13910 c-2 -5 0 -347 3 -365 1 -7 282 -10 821 -9 451 0 820 -1
820 -2 0 -2 -53 -34 -117 -72 -268 -159 -720 -426 -751 -444 -19 -10 -134 -78
-255 -150 -122 -72 -289 -170 -372 -219 l-150 -88 0 -215 c0 -137 3 -217 10
-219 9 -3 2361 -1 2376 2 9 1 7 365 -2 371 -4 3 -394 5 -868 5 -473 -1 -857 3
-853 7 6 6 362 215 557 328 264 152 1153 674 1160 681 10 10 18 347 9 379 -3
13 -145 15 -1195 15 -655 0 -1192 -2 -1193 -5z"/>
<path d="M13305 12301 c-3 -5 0 -13 6 -17 7 -4 9 -3 5 4 -3 5 0 13 6 15 9 4
10 6 1 6 -6 1 -14 -3 -18 -8z"/>
<path d="M15853 11300 l1 -440 172 0 c129 0 173 3 176 13 2 6 4 114 3 239 l0
228 252 0 252 0 7 -22 c4 -13 9 -30 10 -38 2 -8 9 -44 16 -80 7 -38 13 -132
12 -225 0 -134 -4 -173 -22 -239 -51 -178 -120 -268 -277 -356 -36 -20 -178
-65 -235 -74 -214 -33 -601 -26 -706 14 -13 5 -24 8 -24 6 0 -10 -157 58 -208
90 -108 68 -199 183 -237 299 -51 155 -53 384 -5 581 24 100 74 236 116 316 8
14 14 29 14 32 0 3 -83 6 -184 6 l-183 0 -41 -87 c-33 -73 -69 -173 -78 -218
-1 -5 -6 -35 -12 -65 -39 -197 -32 -445 18 -635 70 -264 204 -457 412 -593
119 -77 313 -150 448 -168 25 -3 68 -10 95 -14 89 -15 500 -5 600 14 253 47
439 137 581 280 133 134 207 275 254 486 10 47 22 110 25 140 7 59 8 308 1
375 -17 168 -46 305 -93 440 -19 55 -37 108 -40 118 -5 16 -41 17 -563 17
l-557 0 0 -440z"/>
<path d="M2329 10046 c-2 -2 -30 -7 -62 -10 -153 -18 -304 -86 -398 -179 -95
-95 -140 -216 -140 -377 0 -99 1 -106 21 -180 58 -216 248 -356 540 -399 100
-15 461 -7 546 12 314 71 482 255 490 537 4 157 -30 266 -115 373 -76 94 -235
179 -376 202 -11 2 -33 6 -50 10 -31 8 -449 17 -456 11z m536 -291 c160 -46
238 -134 239 -270 0 -165 -85 -257 -279 -301 -65 -15 -123 -18 -305 -18 -145
1 -246 5 -285 14 -147 31 -247 107 -272 203 -12 47 -9 154 5 196 17 51 74 111
134 142 90 46 192 58 458 55 194 -3 257 -7 305 -21z"/>
<path d="M14685 9324 l0 -200 1196 0 1195 -1 0 201 -1 201 -1195 0 -1196 0 1
-201z"/>
<path d="M16328 8795 c-2 -2 -28 -5 -58 -9 -162 -17 -307 -100 -407 -231 -60
-78 -116 -203 -189 -420 -88 -262 -112 -314 -163 -364 -56 -55 -121 -74 -230
-69 -71 3 -96 9 -132 30 -97 57 -140 158 -143 333 -1 95 15 225 39 319 24 89
87 257 108 284 7 9 -29 12 -176 12 l-186 0 -27 -57 c-61 -133 -95 -249 -109
-379 -7 -62 -8 -288 -1 -312 2 -9 7 -38 11 -64 17 -142 90 -293 190 -394 124
-127 265 -179 475 -178 148 1 245 24 346 85 160 97 240 225 354 569 119 359
180 430 374 433 194 3 304 -86 341 -275 14 -71 14 -293 0 -363 -3 -16 -10 -55
-16 -85 -18 -88 -65 -222 -108 -309 -23 -44 -41 -82 -41 -83 0 -9 361 -1 369
7 18 19 71 133 95 209 53 160 70 284 69 491 -1 217 -23 327 -94 471 -89 182
-281 315 -487 340 -52 6 -200 12 -204 9z"/>
<path d="M2265 8683 c-355 -47 -553 -259 -539 -578 5 -94 17 -141 56 -218 84
-168 261 -269 473 -270 109 -1 164 7 209 29 16 8 33 14 38 14 15 0 100 61 139
100 147 148 171 414 55 613 l-28 48 48 -7 c144 -19 233 -55 299 -121 62 -62
78 -111 79 -233 0 -112 -16 -185 -60 -271 l-23 -47 100 -35 101 -34 23 36 c54
81 95 262 90 395 -10 259 -152 438 -415 527 -48 16 -106 31 -131 34 -24 3 -55
8 -69 11 -29 7 -400 13 -445 7z m178 -303 c148 -165 135 -392 -28 -475 -54
-28 -67 -30 -159 -30 -84 0 -110 4 -151 23 -106 49 -154 123 -155 237 0 187
145 293 399 290 51 0 56 -3 94 -45z"/>
<path d="M2250 7470 c-25 -5 -61 -11 -80 -14 -203 -36 -362 -169 -421 -351
-24 -74 -33 -231 -17 -295 5 -19 11 -44 13 -55 23 -99 145 -239 255 -292 82
-39 145 -54 251 -57 222 -9 408 104 486 295 35 88 41 237 11 334 -20 69 -48
126 -77 159 -15 18 -14 18 42 12 74 -9 172 -38 222 -64 63 -33 103 -75 132
-138 52 -114 29 -313 -54 -465 -2 -4 4 -9 14 -12 10 -3 51 -17 91 -31 41 -14
80 -26 87 -26 22 0 66 90 91 190 36 140 35 296 -3 409 -72 217 -272 353 -583
398 -55 8 -418 10 -460 3z m140 -259 c14 -3 60 -51 89 -93 43 -64 62 -121 62
-189 1 -85 -19 -138 -71 -190 -57 -57 -113 -75 -230 -72 -182 3 -290 99 -290
255 0 165 105 266 298 284 37 4 68 7 69 9 2 1 58 -2 73 -4z"/>
<path d="M16720 7046 c-1 -6 -1 -248 -1 -537 l0 -525 -347 0 -347 1 -5 410 -5
410 -175 0 -174 0 -1 -410 0 -410 -307 0 c-170 0 -308 2 -309 5 -1 3 -2 241
-3 530 l-1 525 -177 2 c-131 1 -178 -1 -179 -10 -1 -7 -2 -337 -3 -734 l-1
-722 1195 2 1195 2 0 735 0 735 -177 1 c-128 1 -178 -1 -178 -10z"/>
<path d="M1725 6120 c-1 -3 -2 -39 0 -80 2 -71 7 -85 88 -260 l86 -184 81 -1
c45 0 84 3 86 7 3 4 -5 52 -17 105 -12 54 -24 112 -26 128 l-5 30 641 -1 c473
-1 641 1 642 10 4 37 3 246 -1 247 -25 4 -1572 3 -1575 -1z"/>
<path d="M15757 5254 c-1 -1 -45 -4 -97 -8 -322 -21 -597 -151 -755 -356 -115
-149 -190 -353 -211 -570 -7 -74 -13 -906 -7 -925 2 -7 409 -10 1196 -9 l1192
1 0 439 c-1 389 -6 533 -20 584 -2 8 -6 27 -9 41 -19 111 -84 273 -151 374
-159 239 -455 389 -827 421 -67 6 -306 12 -311 8z m395 -441 c115 -17 182 -36
264 -74 109 -52 209 -160 245 -264 7 -22 16 -44 20 -50 3 -5 10 -32 14 -60 5
-27 10 -57 12 -65 2 -8 5 -126 7 -262 l2 -248 -833 0 -834 0 1 223 c1 122 5
242 10 267 4 25 11 62 14 84 13 82 70 199 134 272 45 53 144 115 222 139 86
27 120 34 200 41 36 4 67 8 69 10 11 10 371 -1 453 -13z"/>
<path d="M2627 4894 c-1 -1 -36 -4 -77 -7 -159 -13 -292 -79 -366 -183 -91
-128 -98 -395 -13 -542 100 -175 288 -263 558 -260 159 2 260 29 363 96 82 52
119 95 163 187 42 88 56 156 56 268 0 147 -25 252 -85 355 l-31 52 -102 0
c-78 0 -103 -3 -103 -13 0 -7 4 -17 9 -22 17 -17 69 -158 77 -205 21 -139 4
-272 -45 -345 -30 -45 -110 -90 -183 -104 l-48 -8 0 56 c0 31 0 196 0 366 l0
310 -85 0 c-47 1 -87 0 -88 -1z m-47 -494 c0 -261 7 -244 -88 -214 -108 35
-161 110 -162 227 0 135 75 206 228 216 l22 1 0 -230z"/>
<path d="M3017 3771 c55 -123 67 -180 67 -296 -1 -128 -42 -200 -139 -248 -61
-31 -120 -40 -250 -40 -187 0 -286 48 -338 163 -17 36 -21 64 -20 140 1 98 12
148 56 258 l26 62 -115 0 -115 0 -28 -62 c-26 -58 -32 -78 -46 -148 -10 -48
-6 -205 6 -260 14 -68 56 -161 97 -217 17 -22 59 -61 94 -85 111 -78 223 -110
393 -111 158 -1 256 18 357 69 67 34 158 128 191 197 78 162 75 409 -6 567
l-34 65 -110 1 -111 0 25 -55z"/>
<path d="M2333 2754 c-109 -22 -184 -93 -212 -199 -33 -131 -10 -310 58 -444
l21 -41 -35 0 c-26 0 -35 -4 -36 -17 -3 -48 -4 -209 -2 -218 2 -7 204 -10 581
-10 l577 0 0 125 0 125 -425 2 c-234 1 -435 2 -447 2 -17 1 -25 13 -41 64 -30
92 -39 144 -36 217 3 81 15 114 51 137 25 17 60 18 465 18 l438 -1 0 126 0
126 -447 0 c-326 1 -465 -3 -510 -12z"/>
<path d="M1712 1459 l-2 -129 133 0 133 0 -2 123 c-1 67 -2 125 -3 129 0 4
-59 7 -129 6 l-129 -1 -1 -128z"/>
<path d="M2129 1580 c-1 -3 -2 -60 -3 -127 l-2 -123 136 0 c74 -1 335 -2 580
-3 l445 -1 3 127 c1 70 -1 127 -5 128 -42 3 -1153 3 -1154 -1z"/>
<path d="M2845 1152 c-31 -6 -98 -39 -121 -59 -62 -52 -119 -178 -150 -327
-10 -53 -38 -117 -59 -140 -19 -20 -34 -26 -68 -26 -54 0 -91 26 -108 77 -20
60 -6 233 26 328 14 44 27 84 28 89 2 7 -109 11 -198 7 -15 -1 -26 -16 -42
-58 -37 -98 -42 -123 -48 -228 -6 -113 10 -207 47 -282 36 -74 80 -116 158
-152 74 -34 219 -36 291 -4 88 40 160 138 193 265 56 215 81 256 157 265 85
10 127 -53 129 -197 2 -96 -8 -155 -41 -250 -43 -122 -47 -113 51 -113 47 1
95 1 106 2 30 1 78 113 93 216 21 134 20 206 -3 329 -10 54 -56 134 -102 176
-69 63 -122 83 -229 85 -49 1 -99 0 -110 -3z"/>
</g>
</svg>
