<svg width="34" height="35" viewBox="0 0 34 35" fill="none" xmlns="http://www.w3.org/2000/svg">
<g id="Icons/phone-call">
<path id="Vector" d="M21.3212 7.87467C22.7049 8.14464 23.9766 8.82137 24.9734 9.81825C25.9703 10.8151 26.6471 12.0868 26.917 13.4705M21.3212 2.20801C24.196 2.52738 26.8768 3.81476 28.9234 5.85877C30.9699 7.90278 32.2607 10.5819 32.5837 13.4563M31.167 24.7613V29.0113C31.1686 29.4059 31.0878 29.7964 30.9297 30.1579C30.7717 30.5194 30.5399 30.8439 30.2491 31.1106C29.9584 31.3774 29.6152 31.5804 29.2414 31.7068C28.8677 31.8332 28.4716 31.8802 28.0787 31.8447C23.7194 31.371 19.5319 29.8814 15.8529 27.4955C12.4299 25.3204 9.52791 22.4184 7.35285 18.9955C4.95866 15.2997 3.4687 11.0919 3.00369 6.71301C2.96828 6.32125 3.01484 5.92642 3.1404 5.55364C3.26595 5.18087 3.46774 4.83832 3.73294 4.5478C3.99813 4.25729 4.32091 4.02518 4.68072 3.86625C5.04054 3.70732 5.4295 3.62504 5.82285 3.62467H10.0729C10.7604 3.61791 11.4269 3.86137 11.9482 4.30968C12.4695 4.75799 12.81 5.38056 12.9062 6.06134C13.0856 7.42144 13.4182 8.75687 13.8979 10.0422C14.0885 10.5492 14.1297 11.1003 14.0167 11.6301C13.9037 12.1599 13.6412 12.6462 13.2604 13.0313L11.4612 14.8305C13.4779 18.3772 16.4145 21.3138 19.9612 23.3305L21.7604 21.5313C22.1455 21.1505 22.6318 20.888 23.1616 20.775C23.6914 20.662 24.2425 20.7032 24.7495 20.8938C26.0348 21.3735 27.3703 21.7061 28.7304 21.8855C29.4185 21.9826 30.047 22.3292 30.4963 22.8595C30.9455 23.3897 31.1843 24.0666 31.167 24.7613Z" stroke="white" stroke-width="2" stroke-linecap="round" stroke-linejoin="round"/>
</g>
</svg>
